<?xml version="1.0" standalone="no"?><!DOCTYPE svg PUBLIC "-//W3C//DTD SVG 1.1//EN" "http://www.w3.org/Graphics/SVG/1.1/DTD/svg11.dtd"><svg t="1546845116417" class="icon" style="" viewBox="0 0 1024 1024" version="1.1" xmlns="http://www.w3.org/2000/svg" p-id="1823" xmlns:xlink="http://www.w3.org/1999/xlink" width="32" height="32"><defs><style type="text/css"></style></defs><path d="M836.8 208H187.2A59.2 59.2 0 0 0 128 267.2v489.6a59.2 59.2 0 0 0 59.2 59.2h649.6a59.2 59.2 0 0 0 59.2-59.2V267.2a59.2 59.2 0 0 0-59.2-59.2z m-649.6 32h649.6a27.2 27.2 0 0 1 27.2 27.2V304H160v-36.8a27.2 27.2 0 0 1 27.2-27.2z m649.6 544H187.2a27.2 27.2 0 0 1-27.2-27.2V336h704v420.8a27.2 27.2 0 0 1-27.2 27.2z" fill="#1296db" p-id="1824"></path><path d="M720 256h32v32h-32zM768 256h32v32h-32zM816 256h32v32h-32zM654.4 584l9.6-11.2a96 96 0 0 0-92.8-152l-8 4.8a112 112 0 1 0-161.6 145.6A217.6 217.6 0 0 0 316.8 736a16 16 0 0 0 16 16h273.6a16 16 0 0 0 16-16h78.4a16 16 0 0 0 16-16 172.8 172.8 0 0 0-62.4-136zM576 454.4a64 64 0 1 1 20.8 126.4h-35.2a16 16 0 0 0-11.2 1.6l-17.6-14.4a110.4 110.4 0 0 0 41.6-115.2zM384 480a80 80 0 1 1 80 80 80 80 0 0 1-80-80z m-33.6 240a190.4 190.4 0 0 1 78.4-126.4l4.8-4.8 30.4 3.2a112 112 0 0 0 40-8 16 16 0 0 0 6.4 8 192 192 0 0 1 78.4 128z m268.8-16a217.6 217.6 0 0 0-41.6-89.6h24l25.6-8h1.6a132.8 132.8 0 0 1 54.4 97.6z" fill="#1296db" p-id="1825"></path></svg>